<?xml version="1.0" encoding="UTF-8"?>
<svg version="1.1" xmlns="http://www.w3.org/2000/svg" width="1587" height="1593">
<path d="M0 0 C523.71 0 1047.42 0 1587 0 C1587 525.69 1587 1051.38 1587 1593 C1063.29 1593 539.58 1593 0 1593 C0 1067.31 0 541.62 0 0 Z " fill="#020202" transform="translate(0,0)"/>
<path d="M0 0 C50.82 0 101.64 0 154 0 C154 124.74 154 249.48 154 378 C154.66 378 155.32 378 156 378 C156.29970703 377.01773438 156.29970703 377.01773438 156.60546875 376.015625 C158.57159817 371.76393896 161.396647 368.39462056 164.3125 364.75 C165.58273944 363.1411839 166.8522533 361.53179468 168.12109375 359.921875 C168.76675293 359.10525391 169.41241211 358.28863281 170.07763672 357.44726562 C173.05072667 353.66237184 175.96247742 349.83156421 178.875 346 C182.78444483 340.87080376 186.7371483 335.78740812 190.7890625 330.76953125 C193.83245715 326.95722241 196.82125857 323.10329367 199.8125 319.25 C204.02668554 313.8213968 208.24788629 308.39895594 212.5 303 C217.29211484 296.91404082 222.04809416 290.80039859 226.79980469 284.68286133 C230.434621 280.00560524 234.0843336 275.34060652 237.75 270.6875 C241.53986303 265.87484538 245.29301572 261.03581893 249.02050781 256.17456055 C252.65897909 251.43302653 256.32765462 246.71532887 260 242 C264.01469447 236.84445648 268.02101046 231.68315743 272 226.5 C280.50997519 215.42728269 289.02181988 204.36420836 297.875 193.5625 C302.0226987 188.49819295 305.98583722 183.36475494 309.78515625 178.03125 C314.47754464 171.6092158 319.44570596 165.39240425 324.34277344 159.12597656 C326.57586897 156.26124528 328.78924201 153.38201124 331 150.5 C339.53347674 139.38826427 348.14884019 128.33987937 356.81396484 117.33056641 C366.70167955 104.75899188 376.48669216 92.10728642 386.21630859 79.41308594 C392.74811867 70.89198401 399.35459244 62.43274433 406 54 C417.34330485 39.59824722 428.6326893 25.15567741 439.73779297 10.5690918 C440.23939941 9.91078369 440.74100586 9.25247559 441.2578125 8.57421875 C441.90967529 7.71703247 441.90967529 7.71703247 442.57470703 6.8425293 C443.28022705 5.93047729 443.28022705 5.93047729 444 5 C444.53931782 4.14939908 445.07863564 3.29879816 445.63429642 2.42242146 C448 0 448 0 451.28770065 -0.61523914 C452.60402103 -0.61063018 453.92034142 -0.60602121 455.27655029 -0.60127258 C456.01092386 -0.60554471 456.74529744 -0.60981683 457.50192475 -0.61421841 C459.96381689 -0.62245746 462.42400695 -0.59495088 464.88574219 -0.56762695 C466.64985616 -0.56621667 468.41397307 -0.56700808 470.17808533 -0.56983948 C474.96927443 -0.57127581 479.75983941 -0.54185096 484.55088329 -0.50696969 C489.55702245 -0.47574232 494.56317545 -0.47277831 499.56939697 -0.46684265 C509.05025641 -0.45129356 518.53082805 -0.41025064 528.01156068 -0.3600952 C538.80463596 -0.30423491 549.5977249 -0.27672357 560.39090872 -0.25161803 C582.59409986 -0.19933576 604.79703181 -0.11137272 627 0 C625.58838286 2.91156941 624.10331226 5.27204625 622.0234375 7.7578125 C621.43941162 8.46043213 620.85538574 9.16305176 620.25366211 9.88696289 C619.32372437 10.99479126 619.32372437 10.99479126 618.375 12.125 C617.09194615 13.66755153 615.80939036 15.21051748 614.52734375 16.75390625 C613.9122998 17.4927002 613.29725586 18.23149414 612.66357422 18.99267578 C610.1039545 22.08119843 607.60791406 25.21838123 605.11328125 28.359375 C603.41331288 30.48354989 601.70154821 32.59611292 599.98046875 34.703125 C594.06835054 41.94165202 588.25779411 49.22843528 582.58984375 56.66015625 C579.11471951 61.17741068 575.49267037 65.57540339 571.88671875 69.98828125 C568.37663802 74.28936608 564.91582925 78.62376186 561.5 83 C557.01748059 88.74100046 552.43955753 94.39888051 547.83374023 100.04125977 C544.36106685 104.30310704 540.94165068 108.60124524 537.5625 112.9375 C533.44336469 118.22161263 529.21336988 123.40456316 524.9375 128.5625 C519.90206491 134.63911442 515.01402215 140.7989807 510.234375 147.078125 C506.32156019 152.19488283 502.2639844 157.19484389 498.21875 162.20703125 C493.83735444 167.65592785 489.53490798 173.16269636 485.25 178.6875 C480.32791987 185.03288767 475.35865939 191.33597705 470.32910156 197.59643555 C467.02577233 201.71019182 463.75294681 205.84630895 460.5 210 C454.01532137 218.27711513 447.43463811 226.47685981 440.8515625 234.67578125 C435.66413327 241.1441879 430.53995795 247.66111738 425.42333984 254.18554688 C422.65913256 257.7093185 419.89113579 261.23011404 417.12353516 264.7512207 C414.84207455 267.65419938 412.56203871 270.55827252 410.28515625 273.46484375 C405.05383103 280.13929317 399.78524021 286.78181227 394.47851562 293.39648438 C391.14533539 297.55543313 387.84522817 301.73866164 384.5625 305.9375 C380.05804207 311.69537231 375.45970952 317.3723337 370.83837891 323.03662109 C366.87026943 327.90823133 362.96631075 332.82565911 359.09814453 337.77685547 C356.23178914 341.44283343 353.33569608 345.08283442 350.41699219 348.70727539 C348.41264703 351.20001308 346.42091233 353.70264364 344.43115234 356.20703125 C343.48617993 357.39090661 342.53606731 358.57069945 341.58056641 359.74609375 C340.26865134 361.36161945 338.97629991 362.99101334 337.6875 364.625 C336.94886719 365.54539062 336.21023438 366.46578125 335.44921875 367.4140625 C333.75428453 369.85780051 333.75428453 369.85780051 334.2428894 372.39035034 C335.04069255 375.14026127 336.05306542 376.98261204 337.66455078 379.34033203 C338.22248322 380.1653421 338.78041565 380.99035217 339.35525513 381.84036255 C339.96247406 382.72062103 340.56969299 383.60087952 341.1953125 384.5078125 C342.13381546 385.88971268 342.13381546 385.88971268 343.09127808 387.29953003 C345.09489094 390.24663505 347.10950226 393.18601333 349.125 396.125 C351.11680221 399.04405382 353.10627678 401.96467466 355.0944519 404.88619995 C356.33071707 406.70123053 357.56941998 408.51460418 358.81106567 410.32595825 C362.43602091 415.62925656 365.93302106 420.99854767 369.36550903 426.42828369 C371.58534275 429.92098122 373.8736311 433.3646497 376.1796875 436.80078125 C376.63675079 437.48448288 377.09381409 438.16818451 377.56472778 438.87260437 C379.476724 441.73260878 381.39151563 444.5907375 383.30615234 447.44897461 C388.09704709 454.60411104 392.87613055 461.76250511 397.51171875 469.01953125 C400.73118378 474.05950322 404.0130488 479.05364517 407.33984375 484.0234375 C407.79752136 484.70719955 408.25519897 485.39096161 408.72674561 486.09544373 C410.59613565 488.88586199 412.46719592 491.67514956 414.34057617 494.46289062 C419.80698122 502.60195107 425.15750232 510.79062107 430.32217407 519.12466431 C434.2470795 525.44015079 438.35204546 531.6259412 442.49981689 537.79660034 C444.86402127 541.31476554 447.21911642 544.83901903 449.57421875 548.36328125 C450.07961182 549.11940201 450.58500488 549.87552277 451.10571289 550.65455627 C459.04548348 562.54629445 466.8905179 574.50093605 474.74926758 586.44628906 C482.12668496 597.65745381 489.54011382 608.84353498 497 620 C497.6815918 621.01940674 498.36318359 622.03881348 499.06542969 623.08911133 C499.6587207 623.97622803 500.25201172 624.86334473 500.86328125 625.77734375 C508.67533465 637.45972181 516.41663582 649.18658782 524.125 660.9375 C534.51127914 676.77046967 544.99415882 692.53739468 555.51489258 708.28125 C556.12767563 709.19825684 556.12767563 709.19825684 556.75283813 710.13378906 C557.59519016 711.39425622 558.43761967 712.6546716 559.28012085 713.91503906 C564.96045369 722.41462557 570.60138984 730.93804231 576.1875 739.5 C576.91668557 740.61633313 577.64593508 741.7326245 578.37524414 742.84887695 C581.94713928 748.31704479 585.5142238 753.78833689 589.078125 759.26171875 C596.92432818 771.32153146 596.92432818 771.32153146 604.875 783.3125 C614.78243098 798.1090926 624.53110717 813.02090727 634.0625 828.0625 C634.82216064 829.25794434 634.82216064 829.25794434 635.59716797 830.47753906 C639 835.87713409 639 835.87713409 639 837 C615.65205572 837.23362485 592.3043042 837.40995461 568.95542812 837.51812172 C558.11401226 837.56968135 547.2733227 837.63997064 536.43237305 837.75439453 C526.98309425 837.85408208 517.53434142 837.91858538 508.08455139 837.94088495 C503.08083074 837.95392039 498.07861472 837.98453928 493.07537651 838.05730057 C488.36436281 838.12525606 483.65547088 838.14610228 478.9440136 838.13107681 C477.21656249 838.13382472 475.48903942 838.15367735 473.76201248 838.19205475 C460.72704111 838.46746942 460.72704111 838.46746942 456.4955616 834.87197495 C454.67789695 832.31694363 453.33639173 829.83057654 452 827 C450.92850917 825.33055426 449.83736148 823.67340227 448.71875 822.03515625 C447.64400007 820.37879226 446.57107946 818.72123984 445.5 817.0625 C444.97019531 816.24587891 444.44039062 815.42925781 443.89453125 814.58789062 C441.08851966 810.25657734 438.30504366 805.91166844 435.5390625 801.5546875 C432.02756388 796.0287844 428.4581346 790.5421403 424.875 785.0625 C423.54808422 783.03000854 422.22126292 780.9974554 420.89453125 778.96484375 C419.90960693 777.45639893 419.90960693 777.45639893 418.90478516 775.91748047 C411.30026676 764.26995485 403.7349617 752.59980335 396.25 740.875 C388.64171198 728.96187818 380.91954989 717.12558108 373.16748047 705.30566406 C360.76513915 686.39062673 348.37076761 667.47211005 336.25 648.375 C331.42776402 640.77738592 326.55187243 633.21766282 321.625 625.6875 C316.35441611 617.63035985 311.12519792 609.54827578 305.9375 601.4375 C305.2671875 600.38957275 304.596875 599.34164551 303.90625 598.26196289 C300.76295941 593.34217906 297.62837374 588.41717205 294.51171875 583.48046875 C287.72418057 572.74028537 280.77837839 562.11976477 273.70480347 551.56668091 C268.44253535 543.71273296 263.28192043 535.80726993 258.26733398 527.79272461 C254.7144307 522.11559547 251.09356625 516.48622492 247.4375 510.875 C246.90125 510.05088623 246.365 509.22677246 245.8125 508.37768555 C243.12869695 504.25630534 240.43617799 500.14085166 237.734375 496.03125 C236.71872754 494.47918136 235.70310155 492.92709868 234.6875 491.375 C234.21304443 490.65812012 233.73858887 489.94124023 233.24975586 489.20263672 C230 484.22581894 230 484.22581894 230 482 C229.34 482 228.68 482 228 482 C227.67708984 482.78697266 227.67708984 482.78697266 227.34765625 483.58984375 C225.47139201 486.94536559 222.96509119 489.69085927 220.4375 492.5625 C219.34013436 493.82464212 218.24378823 495.08767134 217.1484375 496.3515625 C216.60928711 496.97321289 216.07013672 497.59486328 215.51464844 498.23535156 C213.48511729 500.59986658 211.52054107 503.01360529 209.5625 505.4375 C205.46214086 510.4869477 201.21630651 515.39773017 196.9465332 520.3034668 C189.23740623 529.16451935 181.67357487 538.13683389 174.25390625 547.2421875 C171.80774587 550.23523642 169.34632213 553.21522783 166.875 556.1875 C166.10929688 557.10917969 165.34359375 558.03085937 164.5546875 558.98046875 C162 562 162 562 160.25019735 563.65469837 C155.62335381 568.24535247 154.18982601 571.52797684 154.07025772 578.02087212 C154.09500614 579.54424281 154.09500614 579.54424281 154.12025452 581.09838867 C154.10515773 582.74410449 154.10515773 582.74410449 154.08975595 584.42306709 C154.06457255 588.08872494 154.08911491 591.75233107 154.11352539 595.41796875 C154.10563545 598.04966787 154.09467374 600.68135931 154.08087158 603.31303406 C154.05602482 608.97322233 154.0566188 614.63294412 154.07469368 620.29315186 C154.10078922 628.47667078 154.08820408 636.65977433 154.06630235 644.8432889 C154.03181002 658.12165179 154.02842182 671.39983204 154.04467773 684.67822266 C154.06039817 697.57377685 154.06133783 710.46919389 154.04272461 723.36474609 C154.04158309 724.16827542 154.04044157 724.97180475 154.03926545 725.79968345 C154.03022236 732.0841946 154.02032445 738.36870432 154.01015651 744.65321374 C153.96057133 775.43557739 153.98551897 806.21747101 154 837 C103.18 837 52.36 837 0 837 C0 560.79 0 284.58 0 0 Z " fill="#FDFDFD" transform="translate(508,402)"/>
</svg>
